<?xml version="1.0" encoding="utf-8"?>
<!-- Generator: Adobe Illustrator 24.0.2, SVG Export Plug-In . SVG Version: 6.00 Build 0)  -->
<svg version="1.1" id="Слой_1" xmlns="http://www.w3.org/2000/svg" xmlns:xlink="http://www.w3.org/1999/xlink" x="0px" y="0px"
	 width="128px" height="128px" viewBox="0 0 128 128" style="enable-background:new 0 0 128 128;" xml:space="preserve">
<g>
	<path d="M31.9,51.5C37.1,38.4,50,29.6,64,29.6c14,0,26.9,8.8,32.1,21.9l0.1,0.2h30.8l-1.3-4.7C118,19.3,92.6,0.1,64,0.1
		c-28.6,0-54,19.3-61.6,46.9l-1.3,4.7h30.8L31.9,51.5z"/>
	<path d="M96.1,76.5C90.9,89.6,78,98.4,64,98.4s-26.9-8.8-32.1-21.9l-0.1-0.2H1.1l1.3,4.7c7.7,27.6,33,46.9,61.6,46.9
		c28.6,0,54-19.3,61.6-46.9l1.3-4.7H96.1L96.1,76.5z"/>
</g>
</svg>
